<svg xmlns="http://www.w3.org/2000/svg" width="653.636" height="700" viewBox="0 0 653.636 700"><g transform="translate(-1413 -1716.202)"><path d="M1792.838,2322.649a305.877,305.877,0,0,1-61.191-6.168,301.972,301.972,0,0,1-108.57-45.685,304.5,304.5,0,0,1-110-133.583,302.086,302.086,0,0,1-17.692-56.993,305.985,305.985,0,0,1,5.758-145.728,304.562,304.562,0,0,1,152.109-185.144l.5.868c-89.112,55.769-142.313,151.728-142.313,256.69,0,166.864,135.758,302.618,302.627,302.618a301.3,301.3,0,0,0,139.13-33.823l.5.868a302.185,302.185,0,0,1-160.844,46.08ZM1642.9,1756.119a301.74,301.74,0,0,0-152.685,262.911c0,166.864,135.757,302.618,302.626,302.618a301.925,301.925,0,0,0,149.7-39.587,302.316,302.316,0,0,1-128.485,28.462,305.881,305.881,0,0,1-61.191-6.168,301.974,301.974,0,0,1-108.57-45.685,304.5,304.5,0,0,1-110.005-133.583A302.09,302.09,0,0,1,1516.6,2068.1a306.108,306.108,0,0,1,4.084-139.7,303.145,303.145,0,0,1,74.048-131.42A305.482,305.482,0,0,1,1642.9,1756.119Z"/><g transform="translate(1508.295 1746.946)"><path d="M1952.013,2273.743c-111.811,57.255-250.488,38.739-342.479-46.895-85.653-79.732-117.484-205.1-80.1-316.092,22.075-65.542,67.1-121.68,125.449-158.562,3.019-1.909.23-6.726-2.809-4.8-107.252,67.789-163.168,196.729-137.667,321.344,22.946,112.13,110.167,204.367,220.738,233.8,73.364,19.527,152.19,10.575,219.677-23.983,3.188-1.633.376-6.436-2.808-4.8Z" transform="translate(-1508.295 -1746.946)"/></g><rect width="12.984" height="244.775" transform="translate(1622.249 1956.35)"/><rect width="12.984" height="141.392" transform="translate(1684.095 2111.422)"/><circle cx="6.492" cy="6.492" r="6.492" transform="translate(1684.232 2082.174)"/><g transform="translate(1745.992 2160.202)"><path d="M1759,2305.172v-16.193c35,0,63.516-29.115,63.516-64.381s-28.926-64.381-64.192-64.381H1746v142.839A113.915,113.915,0,0,0,1759,2305.172Zm0-130.918A50.871,50.871,0,0,1,1759,2276Z" transform="translate(-1746 -2160.217)"/><path d="M1746,2318.344v97.873h13V2319.54C1754,2319.235,1749,2318.831,1746,2318.344Z" transform="translate(-1746 -2160.217)"/></g><g transform="translate(1732.768 1716.202)"><path d="M1814.314,1718.7c1.413,7.756,2.806,15.405,4.2,23.053l.5.211,13.525-22.764c.508,12,1,23.5,1.493,35.259l-3.252-.724c-.362-7.536-.722-15.025-1.081-22.515l-.457-.119-12.295,20.936-4.2-23.04-.485-.06-7.006,17.779-1.131,2.6c-2.87-.491-.893-.2-2.87-.491C1801.529,1745.1,1812.2,1720.264,1814.314,1718.7Z" transform="translate(-1732.782 -1716.202)"/><path d="M2031.961,1979.517l33.333-2.118a27.322,27.322,0,0,1,.885,13.292c-1.782,8.314-9.459,10.6-15.724,4.874-.318-.291-.634-.585-1.081-1a21.321,21.321,0,0,1-1.1,2.238c-1.771,2.736-4,3.623-7.516,3.492-3.8-.14-5.49-2.023-7.028-4.725a7.334,7.334,0,0,1-.939-2.943C2032.452,1988.375,2032.24,1984.111,2031.961,1979.517Zm17.448,2.654c.129,1.924.159,3.324.338,4.7a17.123,17.123,0,0,0,.71,3.005,6.953,6.953,0,0,0,6.594,4.95,6.1,6.1,0,0,0,6.049-4.9,33.833,33.833,0,0,0,.178-7.431,1.5,1.5,0,0,0-1.1-.97C2058,1981.682,2053.819,1981.934,2049.409,1982.171Zm-14.471,1.066a82.276,82.276,0,0,0,1.163,9.277c.813,3.392,2.874,4.818,5.561,4.578a5.614,5.614,0,0,0,4.952-5.436,45.588,45.588,0,0,0-.251-7.94c-.039-.449-1.046-1.179-1.584-1.16C2041.691,1982.665,2038.61,1982.96,2034.938,1983.237Z" transform="translate(-1732.782 -1716.202)"/><path d="M1764.886,1735.135a15.2,15.2,0,0,1-14.944,16.958c-8.317.088-14.2-4.394-16.553-12.612a17.584,17.584,0,0,1,7.565-19.288c6.517-3.976,16.14-2.736,20.637,2.806l-1.668,1.814c-2.444-1.194-4.57-2.67-6.923-3.3-8.492-2.283-15.987,3.65-16.514,12.431-.492,8.181,4.751,13.8,11.493,14.919,6.173,1.019,12.867-3.954,13.011-10.149l-19.9,1.438c.36-3.531.365-3.445,3.506-3.634C1751.313,1736.111,1758.021,1735.608,1764.886,1735.135Z" transform="translate(-1732.782 -1716.202)"/><path d="M1843.3,1755.749l-3.387-.7c2.6-11.08,5.169-22.048,7.877-33.6l15.584,29.8.565-.008c1.817-7.77,3.634-15.54,5.48-23.437l3.083.5c-.394,5.569-6.7,30.668-8.257,32.091l-14.814-27.865-.515.047C1847.064,1740.2,1845.217,1747.816,1843.3,1755.749Z" transform="translate(-1732.782 -1716.202)"/><path d="M1870.905,1763.738l27.274-26.447v38.149c-3.012-.363-3.363-.736-3.38-3.683-.005-.963-.012-1.926-.012-2.888,0-4.253,0-4.237-3.86-5.86-2.654-1.117-5.307-2.238-7.917-3.453a2.355,2.355,0,0,0-3.14.6c-.983,1.092-2.116,2.048-3.168,3.079C1874.167,1765.722,1874.171,1765.726,1870.905,1763.738Zm12.572-7.612,11.078,4.657" transform="translate(-1732.782 -1716.202)"/><path d="M2060.158,1941.592c.231,1.093.442,2.091.741,3.5-3.342.59-6.567,1.15-9.788,1.73-4.709.847-9.423,1.668-14.119,2.581-2.413.468-3.779,2.142-4.538,4.4a10.7,10.7,0,0,0,1.492,9.9c1.926,2.793,4.874,3.067,7.948,2.571,6.983-1.128,13.96-2.291,20.941-3.432a4.2,4.2,0,0,1,.787.046c.189,1.049.381,2.117.614,3.41-4.536.776-9.02,1.54-13.5,2.31-3.19.548-6.372,1.143-9.57,1.644a8.982,8.982,0,0,1-9.23-3.975,15.689,15.689,0,0,1-2.238-13.9c1.26-4.372,4.407-6.543,8.608-7.275C2045.536,1943.833,2052.8,1942.761,2060.158,1941.592Z" transform="translate(-1732.782 -1716.202)"/><path d="M1937.879,1763.91l-2.772,1.084c-1.694-4.273-4.014-7.741-8.766-8.731a5.605,5.605,0,0,0-6.092,2.167,5.2,5.2,0,0,0,.465,6.176c1.575,2.043,3.432,3.866,5.073,5.86,4.046,4.919,3.818,10-.59,13.664-2.95,2.453-6.308,2.422-9.624,1.106-5.311-2.107-8.733-6.109-10.75-11.6l2.944-1.137c1.434,3.313,3.157,6.35,6.289,8.323a9.083,9.083,0,0,0,6.973,1.446,4.8,4.8,0,0,0,3.445-7.014c-1.05-1.906-2.727-3.457-4.04-5.23-1.479-2-3.238-3.9-4.195-6.141a7.491,7.491,0,0,1,1.475-8.269c2.625-2.952,5.985-3.535,9.534-2.571C1932.754,1754.537,1936.042,1758.4,1937.879,1763.91Z" transform="translate(-1732.782 -1716.202)"/><path d="M2018.355,1845.057l-2.2-.356c-1.1-3.386-1.733-6.581-3.147-9.384a6.381,6.381,0,0,0-7.429-3.359c-2.871,1.028-4.166,3.389-3.388,6.529.762,3.072,1.857,6.068,2.514,9.159.9,4.22-.736,7.762-4.11,9.62a9.109,9.109,0,0,1-10.826-1.522c-4.417-4.2-6.046-9.433-5.663-15.4,3.2-.5,3.2-.5,3.2,2.581.011,4.4,1.578,8.078,5.222,10.663a5.742,5.742,0,0,0,6.656.283,5.618,5.618,0,0,0,1.932-6.334c-.742-2.695-1.733-5.324-2.4-8.034-1.164-4.722.519-8.833,4.174-10.648,3.741-1.858,8.246-.759,11.38,2.719C2017.659,1835.328,2018.679,1839.777,2018.355,1845.057Z" transform="translate(-1732.782 -1716.202)"/><path d="M2047.185,1909.017l-2.887-.966c1.142-3.691,1.374-7.328-.525-10.764a13.274,13.274,0,0,0-7.378-6.061c-6.259-2.274-14.495,1.11-17.59,7.187-3.38,6.638-1.324,12.608,6.284,17.924-.452.938-.917,1.9-1.38,2.868-7.785-3.328-11.946-11.914-8.757-21.075,3.007-8.639,14.088-13.637,22.649-10.33C2046.021,1891.053,2050.588,1900.961,2047.185,1909.017Z" transform="translate(-1732.782 -1716.202)"/><path d="M1980.306,1832.78c-.2,1.135-.383,2.137-.56,3.127-9.186-.475-15.218-7.9-15.253-16.476-.039-9.673,8.984-18.041,18.594-17.491,8.523.487,15.928,8.35,15.181,16.258h-2.76c-1.563-8.664-6.115-12.969-13.451-12.747-7.042.213-13.45,6.476-14.142,13.822C1967.32,1825.59,1971.994,1830.777,1980.306,1832.78Z" transform="translate(-1732.782 -1716.202)"/><path d="M1784.564,1749.045c0-3.751-.132-7.448.048-11.129a9.418,9.418,0,0,0-1.8-5.965c-2.746-4.109-5.36-8.306-8.013-12.476-.428-.672-.779-1.392-1.164-2.087,2.986-1.723,2.977-1.717,4.645,1q3.531,5.757,7.089,11.495c.3.486.666.932,1.2,1.669l11.233-14.929,2.988,1.452c-3.854,5.143-7.658,10.107-11.307,15.182a7.968,7.968,0,0,0-1.307,3.775,91.179,91.179,0,0,0-.421,9.759C1787.788,1749.068,1786.976,1749.763,1784.564,1749.045Z" transform="translate(-1732.782 -1716.202)"/><path d="M1938.637,1799.865l-2.606-1.813c5.7-8.026,11.331-15.952,17.125-24.111l-7.837-5.758,2.274-2.458,18.81,13.545-2.881,2.059c-1.73-1.226-3.766-2.56-5.674-4.059-1.2-.945-1.889-.912-2.82.4-4.527,6.381-9.139,12.7-13.748,19.022C1940.511,1797.746,1939.611,1798.7,1938.637,1799.865Z" transform="translate(-1732.782 -1716.202)"/><path d="M2030.23,1942.753h-3.32c-1.459-5.495-2.927-11.021-4.478-16.861l31.786-8.712c.3,1.38.536,2.424.8,3.613l-28.525,7.982C2027.754,1933.493,2028.965,1938.021,2030.23,1942.753Z" transform="translate(-1732.782 -1716.202)"/><path d="M1972.85,1784.988l2.637,2.458-21.76,24.768-2.662-2.221Z" transform="translate(-1732.782 -1716.202)"/><path d="M2049.409,1982.171c4.41-.237,8.588-.489,12.77-.639a1.5,1.5,0,0,1,1.1.97,33.833,33.833,0,0,1-.178,7.431,6.1,6.1,0,0,1-6.049,4.9,6.953,6.953,0,0,1-6.594-4.95,17.123,17.123,0,0,1-.71-3.005C2049.568,1985.495,2049.538,1984.095,2049.409,1982.171Z" transform="translate(-1732.782 -1716.202)" fill="#fff"/><path d="M2034.938,1983.237c3.672-.277,6.753-.572,9.841-.681.538-.019,1.545.711,1.584,1.16a45.588,45.588,0,0,1,.251,7.94,5.614,5.614,0,0,1-4.952,5.436c-2.687.24-4.748-1.186-5.561-4.578A82.276,82.276,0,0,1,2034.938,1983.237Z" transform="translate(-1732.782 -1716.202)" fill="#fff"/><path d="M1895.4,1743.915l-.848,16.868-11.078-4.657" transform="translate(-1732.782 -1716.202)" fill="#fff"/></g><g transform="translate(1691.639 1843.817)"><path d="M1743.5,1878.826c9.644,6.995,19.027,14.35,28.63,21.4q21.843,16.05,43.833,31.9c8.7,6.292,17.59,12.317,26.161,18.774,7.727,5.821,15.239,11.941,22.653,18.159,6.979,5.854,11.974,13.329,16.634,21.1a60.207,60.207,0,0,1,6.7,15.143c2.731,10,5.016,20.03,5.779,30.46.489,6.676.565,13.158-1.062,19.618a75.084,75.084,0,0,1-3.284,11.1c-1.462,3.441-3.7,6.55-5.793,10.126-3.138-3.9-7.164-5.463-11.454-6.22-5.309-.937-12.515.528-15.407,5.857-.964,1.776-2.167,1.25-3.161.317a33.661,33.661,0,0,1-8.09-11.756,63.878,63.878,0,0,1-2.6-6.565,19.619,19.619,0,0,1-.728-5.559c.049-5.674.266-11.363.526-17.01.413-8.931-.664-26.921-2.473-35.677-1.475-7.141-10.208-19.4-14.44-25.342-5.358-7.52-12.339-13.7-18.962-20.108-5.8-5.619-11.766-11.072-17.6-16.664-7.7-7.388-15.339-14.84-23.005-22.264q-10.914-10.568-21.832-21.132-14.391-13.86-28.824-27.676-10.315-9.9-20.632-19.8c-.429-.412-.905-.775-1.533-1.308Z" transform="translate(-1691.653 -1843.822)"/><path d="M1742.562,1880.426c17.889,13.07,35.512,26.5,53.441,39.517,18.355,13.331,37.264,26.029,54.994,40.19,16.657,13.3,30.583,27.768,36.214,49,6.195,23.356,7.8,45.316-5.066,66.546l2.911-.375c-6.01-6.272-16.215-9.459-24.361-5.095-.9.481-2.892,2.593-3.847,2.911-4.8,1.6-6.4-2.958-8.4-6.615-4.317-7.894-4.355-15.348-4.05-24.034a220.421,220.421,0,0,0-1.265-36.747c-1.369-10.388-6.247-18.48-12.114-27.019-7.2-10.488-16.074-19.1-25.252-27.863-12.729-12.15-25.467-24.281-38.1-36.529-24.03-23.29-47.366-48.2-72.821-69.918l-2.245,2.91,49.962,33.125c1.993,1.321,3.851-1.887,1.87-3.2L1694.47,1844.1c-1.733-1.149-3.855,1.536-2.245,2.91,22.049,18.812,42.307,40.346,63.124,60.52,19.988,19.37,40.748,38.116,60.246,57.971a114.661,114.661,0,0,1,20.082,27.718c4.8,9.453,4.852,20.774,5.246,31.181.636,16.82-5.4,44.46,13.457,54.62a1.83,1.83,0,0,0,1.87,0c3.21-2.4,5.87-5.738,9.862-6.637,6.043-1.361,12.145,1.176,16.323,5.536a1.872,1.872,0,0,0,2.91-.375c21.166-34.915,8.961-86.033-21.736-111.863-17.713-14.905-36.768-27.944-55.5-41.512-21.359-15.475-42.387-31.386-63.681-46.944C1742.5,1875.817,1740.653,1879.031,1742.562,1880.426Z" transform="translate(-1691.653 -1843.822)"/><g transform="translate(209.828 163.139)"><path d="M1967.655,2063.64l6.276,5.351c5.7,4.735,11.439,9.423,17.083,14.223,3.316,2.82,6.476,5.821,9.715,8.732a6.254,6.254,0,0,0,.855.549c5.765,4.973,11.513,9.965,17.3,14.916q16.49,14.112,33,28.2c.1.082.058.318.168,1.049a34.468,34.468,0,0,1-5.279-2.1c-12.73-7.748-25.395-15.6-38.1-23.4-9.385-5.756-18.8-11.455-28.2-17.195-5.407-3.3-10.784-6.657-16.193-9.959-11.195-6.833-22.426-13.609-33.6-20.483-7.6-4.676-15.123-9.476-22.787-14.288,1.544-13.537-.617-26.807-4.554-40.48,2.494,2.15,4.64,4.036,6.824,5.877,6,5.061,12.072,10.045,18.021,15.168,7.835,6.746,15.541,13.642,23.388,20.374,2.492,2.139,5.352,3.847,7.87,5.959C1962.287,2058.513,1964.928,2061.127,1967.655,2063.64Z" transform="translate(-1901.481 -2006.961)"/><path d="M1966.344,2064.951q19.432,16.571,38.867,33.122c6.884,5.883,13.722,11.819,20.607,17.7q6.188,5.288,12.379,10.572c2.416,2.062,11.575,7.73,12.066,10.805l2.282-2.281c-9.024-3.194-17.233-9.5-25.36-14.5q-10.349-6.37-20.7-12.728-22.155-13.554-44.316-27.1c-14.951-9.117-29.939-18.169-44.755-27.506-3.155-1.988-6.413-3.244-7.345-7.18-.928-3.915.2-9.324-.171-13.451a135.793,135.793,0,0,0-4.76-24.144l-3.1,1.8c21.261,18.4,43.784,35.726,64.31,54.886,1.744,1.628,4.372-.99,2.623-2.623-20.538-19.172-43.038-36.479-64.31-54.886a1.87,1.87,0,0,0-3.1,1.8c3.658,13.185,5.744,26.3,4.488,39.987a1.84,1.84,0,0,0,.919,1.6c24.057,15.13,48.336,29.893,72.576,44.729,12.323,7.543,24.683,15.025,36.988,22.6,11.222,6.905,22.578,15.878,35.031,20.285,1.47.52,2.483-1.015,2.281-2.282-.413-2.589-2.86-3.762-4.768-5.394q-6.187-5.287-12.379-10.572-12.594-10.755-25.156-21.55c-14.122-12.195-28.372-24.215-42.57-36.322C1967.16,2060.787,1964.524,2063.4,1966.344,2064.951Z" transform="translate(-1901.481 -2006.961)"/></g><g transform="translate(171.218 236.108)"><path d="M1865.492,2101.234c1.12,9.312,4.07,18.313,6.194,27.449,1,4.312,2.24,8.569,3.358,12.854q3.771,14.446,7.529,28.9l.885.261-.962-32.859c-.836-9.7-1.1-19.45-1.668-29.175-.359-6.159-.52-12.352-1.339-18.453-.481-3.583-1.182-7.552-6.172-8.274-2.585-.373-7.569.771-8.084,3.329C1864.446,2089.177,1865.014,2097.269,1865.492,2101.234Z" transform="translate(-1862.871 -2079.93)"/><path d="M1863.7,2101.727c2.118,14.709,6.63,29.156,10.39,43.514q2.523,9.628,5.019,19.264c.8,3.075.463,6.978,3.853,7.977a1.871,1.871,0,0,0,2.348-1.788c-.621-21.227-1.581-42.367-2.713-63.575-.414-7.759,1.807-25.51-9.283-27.04-13.007-1.8-10.547,13.036-9.68,21.155.251,2.349,3.963,2.374,3.709,0-.45-4.217-2.562-15.107,2.65-17.238,9.335-3.819,8.406,14.2,8.653,18.5.692,12.049,1.414,24.111,2.017,36.162.533,10.663.625,21.365.937,32.038l2.348-1.789c-1.237-.365-3.237-12.973-3.77-15.019q-2.3-8.832-4.637-17.655c-3.118-11.689-6.538-23.5-8.264-35.491C1866.941,2098.387,1863.366,2099.388,1863.7,2101.727Z" transform="translate(-1862.871 -2079.93)"/></g><ellipse cx="31.068" cy="20.171" rx="31.068" ry="20.171" transform="matrix(0.969, -0.247, 0.247, 0.969, 85.388, 238.396)"/><path d="M31.068-1A46.678,46.678,0,0,1,43.426.621,36.2,36.2,0,0,1,53.581,5.069a23.273,23.273,0,0,1,6.952,6.7,15.214,15.214,0,0,1,2.6,8.4,15.214,15.214,0,0,1-2.6,8.4,23.273,23.273,0,0,1-6.952,6.7,36.2,36.2,0,0,1-10.155,4.448,46.678,46.678,0,0,1-12.358,1.621A46.678,46.678,0,0,1,18.71,39.721,36.2,36.2,0,0,1,8.555,35.273a23.273,23.273,0,0,1-6.952-6.7,15.214,15.214,0,0,1-2.6-8.4,15.214,15.214,0,0,1,2.6-8.4,23.273,23.273,0,0,1,6.952-6.7A36.2,36.2,0,0,1,18.71.621,46.678,46.678,0,0,1,31.068-1Zm0,40.342c8.108,0,15.716-2.041,21.424-5.747,5.574-3.619,8.644-8.387,8.644-13.424s-3.07-9.805-8.644-13.424C46.784,3.041,39.176,1,31.068,1S15.352,3.041,9.644,6.747C4.07,10.366,1,15.133,1,20.171S4.07,29.976,9.644,33.6C15.352,37.3,22.961,39.342,31.068,39.342Z" transform="matrix(0.969, -0.247, 0.247, 0.969, 85.388, 238.396)"/></g><path d="M77,.5H0v-1H77Z" transform="translate(1413 1990.711)"/><path d="M.008,1.579l-.016-1L67.184-.5,67.2.5Z" transform="translate(1511.349 1989.831)"/><path d="M68,.5H0v-1H68Z" transform="translate(1511 2000.711)"/><path d="M77,.5H0v-1H77Z" transform="translate(1413 2000.711)"/><g transform="translate(1846.319 2184.414)"><path d="M1913.558,2342.4a60.566,60.566,0,0,1-20.413,3.1q-36.391,0-46.815-34.39l9.1-3.106q7.764,28.4,37.718,28.4,17.082,0,26.847-8.432,9.984-8.654,9.984-25.293a33.528,33.528,0,0,0-11.76-26.181,50.116,50.116,0,0,0-9.539-6.434q-6.438-3.545-16.419-7.987-18.859-8.427-25.739-14.643-11.538-9.985-11.535-26.4t11.758-26.4q11.534-10.2,28.4-10.207,27.954,0,39.494,20.857l-8.655,3.771a30.105,30.105,0,0,0-10.647-10.873q-7.773-4.875-20.192-4.881-13.091,0-21.743,7.322-9.316,7.773-9.32,20.412,0,11.316,9.763,19.747,5.543,4.442,22.187,11.983a167.248,167.248,0,0,1,17.972,9.206,63.969,63.969,0,0,1,12.2,9.208q12.864,12.648,12.868,31.505Q1939.071,2332.861,1913.558,2342.4Z" transform="translate(-1846.33 -2184.429)"/><path d="M1893.145,2347.008a61.639,61.639,0,0,1-16.987-2.208,43.49,43.49,0,0,1-13.8-6.681,42.908,42.908,0,0,1-10.447-11.133,59.685,59.685,0,0,1-7.017-15.434l-.42-1.387,11.979-4.09.421,1.54c5.021,18.366,16.885,27.294,36.271,27.294,10.965,0,19.667-2.714,25.867-8.067,6.279-5.443,9.464-13.571,9.464-24.158a32.226,32.226,0,0,0-11.255-25.059l-.024-.021a48.949,48.949,0,0,0-9.245-6.221c-4.248-2.339-9.734-5.007-16.3-7.929-6.305-2.817-11.687-5.489-16-7.941a58.969,58.969,0,0,1-10.126-6.949,33.99,33.99,0,0,1-9.032-12.116,38.285,38.285,0,0,1-3.008-15.411,37.676,37.676,0,0,1,3.068-15.417,34.033,34.033,0,0,1,9.209-12.118,41.053,41.053,0,0,1,13.341-7.931,47.3,47.3,0,0,1,16.04-2.642,62.4,62.4,0,0,1,13.272,1.338,44.492,44.492,0,0,1,11.28,4.05,38.3,38.3,0,0,1,9.208,6.784,42.284,42.284,0,0,1,7.047,9.459l.8,1.443-11.369,4.953-.68-1.122a28.767,28.767,0,0,0-10.109-10.348l-.052-.031c-4.922-3.087-11.447-4.652-19.4-4.652-8.321,0-15.31,2.344-20.774,6.967l-.008.007c-5.909,4.93-8.781,11.23-8.781,19.26,0,7.147,3.017,13.229,9.222,18.594,3.581,2.862,10.931,6.822,21.847,11.77a169.485,169.485,0,0,1,18.127,9.287,65.761,65.761,0,0,1,12.486,9.429,43.853,43.853,0,0,1,9.981,14.7,47.037,47.037,0,0,1,3.329,17.872,57.568,57.568,0,0,1-1.642,14.169,39.6,39.6,0,0,1-4.976,11.659,35.681,35.681,0,0,1-8.321,9.019,44.459,44.459,0,0,1-11.549,6.275l-.019.007A62.309,62.309,0,0,1,1893.145,2347.008Zm-44.946-34.943c6.985,21.491,21.7,31.943,44.946,31.943a59.36,59.36,0,0,0,19.9-3.013c16.506-6.176,24.529-18.707,24.529-38.309,0-12.093-4.179-22.333-12.42-30.436l-.009-.009a62.789,62.789,0,0,0-11.917-8.984,166.559,166.559,0,0,0-17.809-9.121l-.007,0c-11.323-5.133-18.684-9.116-22.506-12.179l-.042-.035a30.994,30.994,0,0,1-7.687-9.622,25.182,25.182,0,0,1-2.6-11.26,28.8,28.8,0,0,1,2.466-12.047,27,27,0,0,1,7.391-9.516,31.223,31.223,0,0,1,10.246-5.763,39.022,39.022,0,0,1,12.459-1.909,49.66,49.66,0,0,1,11.611,1.264,31.577,31.577,0,0,1,9.353,3.831,31.081,31.081,0,0,1,10.459,10.269l5.931-2.584c-7.488-12.379-20.046-18.653-37.354-18.653-10.81,0-20.03,3.307-27.405,9.831l-.023.02c-7.451,6.324-11.229,14.822-11.229,25.258s3.707,18.943,11.017,25.27l.024.022c4.441,4.016,12.969,8.856,25.345,14.386,6.644,2.956,12.207,5.662,16.531,8.042a51.838,51.838,0,0,1,9.823,6.636,35.023,35.023,0,0,1,12.252,27.292,41.368,41.368,0,0,1-2.6,15.195,28.572,28.572,0,0,1-7.9,11.232,33.952,33.952,0,0,1-12.128,6.623,52.59,52.59,0,0,1-15.7,2.176c-20.091,0-33.111-9.408-38.724-27.97Z" transform="translate(-1846.33 -2184.429)"/></g></g></svg>