<svg xmlns="http://www.w3.org/2000/svg" width="50" height="50" viewBox="0 0 50 50"><g transform="translate(-4895 -764)"><path d="M3663.684,360.527c1.331,1.064,2.627,2.183,3.952,3.256q3.015,2.441,6.051,4.852c1.2.957,2.428,1.873,3.611,2.856,1.067.885,2.1,1.816,3.127,2.762a12.155,12.155,0,0,1,2.3,3.209,9.652,9.652,0,0,1,.925,2.3,26.459,26.459,0,0,1,.8,4.633,10.2,10.2,0,0,1-.146,2.984,12.335,12.335,0,0,1-.453,1.689,14.982,14.982,0,0,1-.8,1.54,2.39,2.39,0,0,0-1.581-.946,1.947,1.947,0,0,0-2.127.891c-.133.27-.3.19-.436.048a5.168,5.168,0,0,1-1.117-1.788,10.365,10.365,0,0,1-.359-1,3.264,3.264,0,0,1-.1-.846c.007-.863.037-1.728.073-2.587a32.058,32.058,0,0,0-.341-5.426,14.951,14.951,0,0,0-1.993-3.855,22.342,22.342,0,0,0-2.617-3.058c-.8-.855-1.624-1.684-2.429-2.535-1.063-1.124-2.117-2.257-3.176-3.386q-1.507-1.607-3.014-3.214-1.986-2.108-3.979-4.21-1.423-1.506-2.848-3.012c-.059-.063-.125-.118-.212-.2Z" transform="translate(1238.472 408.797)"/><path d="M3659.917,356.769c2.469,1.988,4.9,4.03,7.377,6.011,2.534,2.028,5.144,3.959,7.591,6.113,2.3,2.024,4.222,4.224,5,7.452.855,3.552,1.077,6.893-.7,10.122l.4-.057a2.724,2.724,0,0,0-3.363-.775c-.124.073-.4.394-.531.443-.663.243-.883-.45-1.159-1.006a7.145,7.145,0,0,1-.559-3.656,36.932,36.932,0,0,0-.175-5.589,9.763,9.763,0,0,0-1.672-4.11,26.7,26.7,0,0,0-3.486-4.238c-1.757-1.848-3.516-3.693-5.26-5.556-3.317-3.542-6.539-7.331-10.052-10.635l-.31.443,6.9,5.038c.275.2.531-.287.258-.487l-6.9-5.038c-.239-.175-.532.234-.31.443,3.043,2.861,5.84,6.137,8.714,9.205,2.759,2.946,5.625,5.8,8.316,8.817a17.49,17.49,0,0,1,2.772,4.216,12.448,12.448,0,0,1,.724,4.743c.088,2.558-.745,6.762,1.858,8.308a.233.233,0,0,0,.258,0c.443-.365.81-.873,1.361-1.009a2.3,2.3,0,0,1,2.253.842.245.245,0,0,0,.4-.057c2.922-5.311,1.237-13.086-3-17.015-2.445-2.267-5.075-4.25-7.661-6.314-2.948-2.354-5.851-4.774-8.791-7.14C3659.909,356.068,3659.653,356.557,3659.917,356.769Z" transform="translate(1242.11 412.798)"/><path d="M4100.1,735.844l.866.814c.787.72,1.579,1.433,2.358,2.163.458.429.894.885,1.341,1.328a.84.84,0,0,0,.118.084c.8.756,1.589,1.516,2.388,2.269q2.276,2.147,4.556,4.289c.013.012.008.048.023.16a4.519,4.519,0,0,1-.729-.32c-1.757-1.179-3.505-2.373-5.259-3.558-1.3-.875-2.6-1.742-3.892-2.615-.747-.5-1.489-1.013-2.235-1.515-1.545-1.039-3.1-2.07-4.638-3.115-1.049-.711-2.088-1.441-3.146-2.173a17.151,17.151,0,0,0-.629-6.157c.344.327.641.614.942.894.829.77,1.666,1.528,2.488,2.307,1.082,1.026,2.145,2.075,3.228,3.1.344.325.739.585,1.086.906C4099.358,735.064,4099.723,735.462,4100.1,735.844Z" transform="translate(833 61.59)"/><path d="M4096.314,732.227q2.683,2.52,5.366,5.038c.95.895,1.894,1.8,2.844,2.693l1.709,1.608c.333.314,1.6,1.176,1.666,1.644l.315-.347a19.139,19.139,0,0,1-3.5-2.206q-1.429-.969-2.858-1.936-3.058-2.061-6.117-4.122c-2.064-1.387-4.133-2.764-6.178-4.184-.436-.3-.885-.493-1.014-1.092a18.017,18.017,0,0,1-.023-2.046,22.526,22.526,0,0,0-.657-3.672l-.428.274c2.935,2.8,6.044,5.434,8.877,8.348.241.248.6-.151.362-.4-2.835-2.916-5.941-5.548-8.877-8.348a.262.262,0,0,0-.428.274,18.382,18.382,0,0,1,.619,6.082.287.287,0,0,0,.127.244c3.321,2.3,6.673,4.547,10.019,6.8,1.7,1.147,3.407,2.285,5.106,3.437a26.715,26.715,0,0,0,4.835,3.085c.2.079.343-.154.315-.347-.057-.394-.395-.572-.658-.82l-1.708-1.608q-1.739-1.636-3.473-3.278c-1.949-1.855-3.917-3.683-5.876-5.525C4096.427,731.594,4096.063,731.991,4096.314,732.227Z" transform="translate(836.603 65.407)"/><path d="M4011.586,897.245c.155,1.417.562,2.786.855,4.175.138.656.309,1.3.464,1.955q.52,2.2,1.039,4.4l.122.04-.133-5c-.115-1.475-.152-2.958-.23-4.437-.05-.937-.072-1.879-.185-2.807-.066-.545-.163-1.149-.852-1.258-.357-.057-1.045.117-1.116.506A11.3,11.3,0,0,0,4011.586,897.245Z" transform="translate(907.41 -94.093)"/><path d="M4007.528,893.2a65.73,65.73,0,0,0,1.434,6.619q.348,1.465.693,2.93c.111.468.064,1.061.532,1.213a.264.264,0,0,0,.324-.272c-.086-3.229-.218-6.444-.375-9.67-.057-1.18.25-3.88-1.281-4.113-1.8-.273-1.456,1.983-1.336,3.218.035.357.547.361.512,0-.062-.641-.354-2.3.366-2.622,1.289-.581,1.16,2.159,1.194,2.814.1,1.833.2,3.667.278,5.5.074,1.622.086,3.25.13,4.873l.324-.272a12.055,12.055,0,0,1-.521-2.284q-.318-1.343-.64-2.685a51.446,51.446,0,0,1-1.141-5.4C4007.975,892.692,4007.482,892.844,4007.528,893.2Z" transform="translate(911.221 -89.973)"/><ellipse cx="4.321" cy="3.045" rx="4.321" ry="3.045" transform="translate(4906.571 800.534) rotate(-18.326)"/><path d="M4.321-1A6.34,6.34,0,0,1,7.953.074a3.684,3.684,0,0,1,1.69,2.971,3.684,3.684,0,0,1-1.69,2.971A6.34,6.34,0,0,1,4.321,7.09,6.34,6.34,0,0,1,.69,6.015,3.684,3.684,0,0,1-1,3.045,3.684,3.684,0,0,1,.69.074,6.34,6.34,0,0,1,4.321-1Zm0,6.09A4.393,4.393,0,0,0,6.8,4.381a1.767,1.767,0,0,0,.842-1.336A1.767,1.767,0,0,0,6.8,1.709,4.393,4.393,0,0,0,4.321,1a4.393,4.393,0,0,0-2.48.709A1.767,1.767,0,0,0,1,3.045a1.767,1.767,0,0,0,.842,1.336A4.393,4.393,0,0,0,4.321,5.09Z" transform="translate(4906.571 800.534) rotate(-18.326)"/></g></svg>